<svg id="Capa_1" fill="#9C27B0" height="512" viewBox="0 0 512 512" width="512" xmlns="http://www.w3.org/2000/svg"><g><g><path d="m55.121 362.574c-9.595-9.595-18.116-19.782-25.685-30.284-13.145 8.236-22.89 15.953-27.637 19.918-1.906 1.592-2.357 4.33-1.063 6.45 9.865 16.161 52.786 80.649 115.251 90.948 27.615 4.553 55.006-2.155 78.235-12.101-41.454-10.614-96.181-32.009-139.101-74.931z"/><path d="m482.565 332.29c-7.57 10.503-16.091 20.69-25.686 30.285-42.921 42.922-97.647 64.318-139.101 74.93 23.23 9.946 50.62 16.654 78.235 12.101 62.465-10.298 105.386-74.786 115.251-90.948 1.294-2.12.843-4.857-1.063-6.45-4.746-3.965-14.491-11.683-27.636-19.918z"/></g><g><path d="m159.564 177.99c5.442-21.703 13.228-41.746 21.739-59.491-24.119-22.323-46.77-36.678-56.585-42.457-2.693-1.586-6.155-.347-7.232 2.587-4.004 10.916-12.68 37.229-17.089 70.766 19.253 7.019 39.56 16.311 59.167 28.595z"/><path d="m411.603 149.395c-4.409-33.537-13.085-59.85-17.089-70.766-1.076-2.934-4.539-4.173-7.232-2.587-9.815 5.778-32.465 20.134-56.585 42.457 8.511 17.745 16.296 37.787 21.739 59.491 19.607-12.284 39.914-21.576 59.167-28.595z"/></g><g><path d="m151.743 239.317c0-9.982.654-19.774 1.831-29.338-58.364-40.757-127.588-49.838-148.032-51.688-3.164-.286-5.807 2.357-5.521 5.521 2.177 24.046 14.344 115.581 76.312 177.549 41.209 41.209 95.487 60.391 134.304 69.26-24.407-35.408-58.894-98.363-58.894-171.304z"/><path d="m506.458 158.291c-20.444 1.85-89.668 10.931-148.032 51.689 1.178 9.563 1.831 19.355 1.831 29.337 0 72.942-34.488 135.897-58.895 171.304 38.817-8.87 93.095-28.051 134.305-69.261 61.968-61.968 74.136-153.503 76.312-177.549.286-3.163-2.357-5.806-5.521-5.52z"/></g><path d="m330.257 239.317c0 86.206-55.205 158.338-70.417 176.578-2.002 2.4-5.679 2.4-7.681 0-15.212-18.24-70.417-90.372-70.417-176.578s55.206-158.337 70.418-176.577c2.002-2.4 5.679-2.4 7.681 0 15.211 18.24 70.416 90.372 70.416 176.577z"/></g></svg>
